#!OML:ASF H:\Terrain\Patient Classification 1\Walking\liu\liu.ASF
:FULLY-SPECIFIED
:DEGREES
331
root 9.63098 16.5407 31.5559 9.0026 -7.79285 -8.30466
lowerback -6.54809 4.73052 3.32497
upperback -2.00097 6.00679 3.78572
thorax 1.51928 3.00555 2.51336
lowerneck -10.6404 -4.74215 -14.487
upperneck 16.7823 -6.36236 13.2609
head 7.79917 -2.83602 6.21327
rclavicle -2.40281e-014 -1.82882e-014
rhumerus -22.8295 24.9617 -84.5854
rradius 50.3565
rwrist -24.788
rhand -36.7914 -22.0027
rfingers 7.12502
rthumb -9.87336 -51.7512
lclavicle -2.40281e-014 -1.82882e-014
lhumerus -66.1228 2.92609 74.2452
lradius 19.7433
lwrist -5.89971
lhand -10.1857 -23.3954
lfingers 7.12502
lthumb 15.8048 5.97942
rfemur 22.5106 6.80618 31.2814
rtibia 2.54444e-014
rfoot -9.81796 3.81425
rtoes -24.5046
lfemur -47.5455 3.69339 -8.65495
ltibia 24.79
lfoot -11.3607 12.0599
ltoes -16.1445
332
root 9.65849 16.5196 31.8129 9.16213 -7.78208 -8.37512
lowerback -7.66816 4.9114 3.46792
upperback -0.794909 6.10995 3.67943
thorax 3.41611 3.0617 2.51909
lowerneck -13.91 -5.43216 -14.3311
upperneck 17.0417 -6.921 13.1522
head 8.56307 -2.98656 6.05369
rclavicle -3.98812e-014 -3.22031e-014
rhumerus -20.1913 23.7438 -83.2901
rradius 49.8709
rwrist -23.3684
rhand -36.2458 -23.4727
rfingers 7.12502
rthumb -9.34698 -53.2455
lclavicle -3.98812e-014 -3.22031e-014
lhumerus -63.9076 4.56242 72.4163
lradius 18.7393
lwrist -7.5113
lhand -10.3817 -23.4024
lfingers 7.12502
lthumb 15.6161 5.98726
rfemur 23.1914 6.85505 31.1692
rtibia -3.18055e-014
rfoot -8.89704 3.77009
rtoes -25.6408
lfemur -48.2217 4.58187 -9.43614
ltibia 26.5404
lfoot -8.38949 11.5588
ltoes -13.34
333
root 9.68539 16.5081 32.0674 9.39812 -7.58922 -8.68488
lowerback -8.15045 5.15988 3.73824
upperback 0.479534 6.32747 3.6506
thorax 5.04747 3.1762 2.50602
lowerneck -19.9043 -6.41902 -13.4751
upperneck 18.8591 -7.66739 12.1269
head 10.3351 -3.17434 5.41797
rclavicle 1.21507e-014 3.89618e-014
rhumerus -17.2059 21.7495 -81.7308
rradius 49.5974
rwrist -21.7082
rhand -35.4054 -24.7227
rfingers 7.12502
rthumb -8.53603 -54.5302
lclavicle 1.21507e-014 3.89618e-014
lhumerus -61.0294 6.55966 70.5015
lradius 17.7871
lwrist -9.10941
lhand -9.99726 -22.9947
lfingers 7.12502
lthumb 15.9863 6.36566
rfemur 23.7325 6.78165 31.2898
rtibia -5.40694e-014
rfoot -7.63267 3.76147
rtoes -24.9476
lfemur -49.1035 5.46333 -9.94476
ltibia 28.1227
lfoot -4.70238 11.3804
ltoes -14.0289
334
root 9.70328 16.4987 32.3023 9.43147 -7.36219 -8.45355
lowerback -8.16911 5.35152 3.56067
upperback 0.675202 6.60299 3.42358
thorax 5.26735 3.31091 2.41952
lowerneck -20.1746 -6.79677 -14.5342
upperneck 18.2184 -8.14474 13.6408
head 10.3545 -3.29691 6.06751
rclavicle 4.5472e-015 -2.14687e-014
rhumerus -17.0937 19.9651 -81.5032
rradius 49.8584
rwrist -21.4041
rhand -34.9844 -25.004
rfingers 7.12502
rthumb -8.12969 -54.8276
lclavicle 4.5472e-015 -2.14687e-014
lhumerus -60.3919 7.52978 68.4012
lradius 17.2119
lwrist -9.74
lhand -8.56439 -22.7373
lfingers 7.12502
lthumb 17.3657 6.50689
rfemur 24.3979 6.56611 30.9012
rtibia 9.54166e-015
rfoot -6.28537 3.56362
rtoes -24.0215
lfemur -49.8209 5.74649 -10.601
ltibia 29.8506
lfoot -1.54733 11.0644
ltoes -16.6005
335
root 9.71352 16.4929 32.5241 9.17696 -7.1675 -7.53501
lowerback -9.68131 5.10566 2.29767
upperback 2.28804 6.28565 3.34278
thorax 7.71185 3.08852 3.26569
lowerneck -22.1675 -7.41279 -15.3513
upperneck 17.5122 -8.63457 14.6621
head 10.648 -3.39334 6.47556
rclavicle -1.60071e-013 -2.78299e-014
rhumerus -14.4091 19.443 -80.5714
rradius 49.6416
rwrist -21.8112
rhand -34.8037 -25.5982
rfingers 7.12502
rthumb -7.95534 -55.4285
lclavicle -1.60071e-013 -2.78299e-014
lhumerus -58.2166 10.3109 67.0201
lradius 16.161
lwrist -11.6451
lhand -8.86549 -23.0039
lfingers 7.12502
lthumb 17.0759 6.26563
rfemur 25.2428 6.24657 29.8292
rtibia 8.26944e-014
rfoot -4.87393 3.28663
rtoes -23.6854
lfemur -49.9076 5.58162 -11.7113
ltibia 31.3715
lfoot -0.0684224 11.0803
ltoes -16.1085
336
root 9.73308 16.4834 32.7684 9.35881 -6.73187 -7.4542
lowerback -8.29683 5.01847 1.9802
upperback 0.926642 6.31638 3.24102
thorax 5.45243 3.1284 3.0847
lowerneck -21.472 -7.19733 -15.0779
upperneck 18.5598 -8.51607 14.1683
head 10.8361 -3.40057 6.30213
rclavicle 1.14301e-014 -1.90833e-014
rhumerus -17.3551 18.79 -81.7266
rradius 49.6674
rwrist -21.6066
rhand -35.2167 -24.5222
rfingers 7.12502
rthumb -8.3539 -54.337
lclavicle 1.14301e-014 -1.90833e-014
lhumerus -60.2877 10.1152 65.1057
lradius 15.9581
lwrist -12.2717
lhand -8.39976 -22.834
lfingers 7.12502
lthumb 17.5242 6.39612
rfemur 25.6496 5.88142 29.5834
rtibia -3.18055e-014
rfoot -3.14806 3.01553
rtoes -24.1833
lfemur -50.3147 5.84792 -12.2783
ltibia 32.8137
lfoot 1.09773 10.2195
ltoes -15.7235
337
root 9.75144 16.4842 33.0009 9.16146 -6.45933 -6.29719
lowerback -6.54093 4.98532 0.639564
upperback -0.323629 6.50602 2.79321
thorax 3.06047 3.23356 3.10612
lowerneck -20.6973 -7.324 -15.5649
upperneck 19.1378 -8.86428 14.7341
head 11.0206 -3.56425 6.57287
rclavicle 2.88983e-014 -1.86858e-014
rhumerus -20.3183 17.735 -82.6817
rradius 49.8683
rwrist -21.2654
rhand -35.5485 -23.9336
rfingers 7.12502
rthumb -8.67412 -53.7354
lclavicle 2.88983e-014 -1.86858e-014
lhumerus -62.0373 9.57776 63.4013
lradius 15.9511
lwrist -13.1885
lhand -8.76336 -22.5812
lfingers 7.12502
lthumb 17.1742 6.67978
rfemur 26.336 5.48957 28.202
rtibia -1.59028e-014
rfoot -1.07576 2.59222
rtoes -25.4629
lfemur -50.4837 5.96872 -14.0182
ltibia 34.34
lfoot 2.05629 8.79905
ltoes -17.1572
338
root 9.77342 16.483 33.2423 9.12399 -6.13619 -5.48079
lowerback -8.40977 4.9642 -0.0797355
upperback 1.28031 6.48938 2.5257
thorax 5.73474 3.15657 3.52718
lowerneck -22.1342 -7.90411 -16.114
upperneck 17.7946 -9.3488 15.5958
head 10.9712 -3.67296 6.85252
rclavicle 9.15403e-014 -1.78906e-015
rhumerus -18.0784 16.5681 -81.7797
rradius 49.6291
rwrist -21.3241
rhand -35.3704 -24.2665
rfingers 7.12502
rthumb -8.50225 -54.0754
lclavicle 9.15403e-014 -1.78906e-015
lhumerus -59.4932 12.3534 61.6702
lradius 14.779
lwrist -16.4542
lhand -9.91399 -22.9736
lfingers 7.12502
lthumb 16.0665 6.38035
rfemur 26.9386 5.12148 27.1571
rtibia -6.36111e-015
rfoot 1.37223 1.75769
rtoes -24.8962
lfemur -50.8301 5.97918 -15.3569
ltibia 36.0067
lfoot 2.52372 7.71952
ltoes -14.6382
339
root 9.80467 16.4605 33.5064 9.27554 -5.83024 -5.02538
lowerback -8.72538 5.14366 -0.473887
upperback 1.22215 6.77326 2.44675
thorax 5.8001 3.28367 3.72574
lowerneck -21.9977 -8.4442 -17.0745
upperneck 17.6236 -9.86122 15.8578
head 11.05 -3.95144 7.01743
rclavicle 1.21259e-014 1.09332e-014
rhumerus -19.0956 15.1817 -81.4262
rradius 49.7455
rwrist -21.4011
rhand -35.4794 -24.088
rfingers 7.12502
rthumb -8.60744 -53.8925
lclavicle 1.21259e-014 1.09332e-014
lhumerus -59.2228 13.0805 60.4969
lradius 13.9086
lwrist -18.8757
lhand -10.732 -23.305
lfingers 7.12502
lthumb 15.2787 6.11068
rfemur 27.4409 4.85382 26.4277
rtibia 2.54444e-014
rfoot 4.04694 0.577719
rtoes -21.9668
lfemur -51.2903 6.63829 -16.7754
ltibia 37.56
lfoot 2.78659 6.31455
ltoes -8.10583
340
root 9.84329 16.4574 33.7613 8.88781 -5.38866 -4.5695
lowerback -9.30532 4.57355 -0.766948
upperback 1.19123 6.05691 2.1715
thorax 6.13767 2.91577 3.56591
lowerneck -20.3483 -7.56705 -15.6495
upperneck 17.2992 -9.10146 15.0293
head 10.356 -3.66238 6.58994
rclavicle -3.45637e-014 -1.55052e-014
rhumerus -20.3793 15.4819 -82.6964
rradius 49.6499
rwrist -21.5922
rhand -35.7767 -23.9382
rfingers 7.12502
rthumb -8.89431 -53.7308
lclavicle -3.45637e-014 -1.55052e-014
lhumerus -60.3445 13.7125 58.8963
lradius 13.9644
lwrist -19.2816
lhand -10.3652 -23.4108
lfingers 7.12502
lthumb 15.632 5.97758
rfemur 26.2989 4.34507 25.7315
rtibia 4.30701
rfoot 4.85828 0.153211
rtoes -18.5949
lfemur -50.9905 6.65156 -17.8215
ltibia 39.0358
lfoot 2.40966 5.4723
ltoes -5.4623
341
root 9.86858 16.4729 33.9793 8.71768 -4.98619 -4.29014
lowerback -7.02702 4.7085 -0.880351
upperback -0.50073 6.28029 1.85037
thorax 3.10114 3.10539 2.98856
lowerneck -18.1524 -7.29224 -16.0147
upperneck 17.6182 -9.06116 15.3826
head 10.0929 -3.7236 6.82797
rclavicle -3.2023e-014 -1.51076e-014
rhumerus -24.1595 14.3699 -83.6415
rradius 49.7119
rwrist -21.6291
rhand -35.5372 -23.9556
rfingers 7.12502
rthumb -8.66319 -53.7579
lclavicle -3.2023e-014 -1.51076e-014
lhumerus -62.14 11.6765 58.2588
lradius 14.2213
lwrist -19.1565
lhand -8.50539 -23.3821
lfingers 7.12502
lthumb 17.4225 5.85706
rfemur 23.995 3.86057 25.277
rtibia 10.1653
rfoot 5.31312 0.051184
rtoes -16.6187
lfemur -50.8609 6.61649 -18.4991
ltibia 40.3692
lfoot 1.79295 4.71373
ltoes -5.36347
342
root 9.88852 16.4983 34.1903 8.68138 -4.73512 -4.12421
lowerback -6.38317 4.49576 -1.31205
upperback -1.47386 6.03424 1.89174
thorax 1.70192 3.01214 3.13007
lowerneck -15.8504 -6.68442 -15.6921
upperneck 17.5711 -8.51233 14.8796
head 9.50253 -3.59021 6.69196
rclavicle 1.16724e-014 4.96962e-015
rhumerus -26.8494 14.2281 -84.3357
rradius 49.7522
rwrist -21.4682
rhand -35.1876 -25.3456
rfingers 7.12502
rthumb -8.32586 -55.1616
lclavicle 1.16724e-014 4.96962e-015
lhumerus -63.7901 11.287 57.3657
lradius 14.4667
lwrist -19.0629
lhand -8.90155 -22.7188
lfingers 7.12502
lthumb 17.0412 6.55374
rfemur 22.0525 3.25836 24.8306
rtibia 14.6916
rfoot 6.59074 0.260277
rtoes -17.5422
lfemur -50.6203 6.64553 -18.9354
ltibia 41.3134
lfoot 1.14564 3.99607
ltoes -3.29943
343
root 9.91367 16.5208 34.4055 8.46043 -4.71665 -3.64684
lowerback -6.18421 4.8058 -1.70915
upperback -0.247516 6.47232 1.75361
thorax 2.80302 3.19547 3.29108
lowerneck -20.4361 -7.91325 -16.1508
upperneck 18.5291 -9.54561 14.9591
head 10.9173 -3.90372 6.61467
rclavicle -1.85864e-014 2.52457e-014
rhumerus -24.9298 12.6044 -83.2223
rradius 49.2804
rwrist -21.1935
rhand -35.0161 -28.5955
rfingers 7.12502
rthumb -8.1603 -58.4179
lclavicle -1.85864e-014 2.52457e-014
lhumerus -61.0071 13.763 56.5262
lradius 13.8561
lwrist -21.2142
lhand -8.17699 -23.0042
lfingers 7.12502
lthumb 17.7385 6.20673
rfemur 20.3362 2.73714 23.949
rtibia 19.2714
rfoot 7.36494 0.495868
rtoes -15.889
lfemur -49.8924 6.56254 -19.5429
ltibia 41.8868
lfoot 0.295244 3.69606
ltoes -0.508475
344
root 9.94162 16.5499 34.6115 8.15322 -4.84995 -2.56014
lowerback -5.3373 4.86888 -2.78862
upperback -0.314224 6.62269 1.41792
thorax 2.17039 3.27506 3.45845
lowerneck -21.147 -8.20636 -16.4511
upperneck 18.8982 -9.84643 15.1572
head 11.2727 -4.01197 6.6964
rclavicle 2.90474e-014 9.14409e-015
rhumerus -25.5251 11.8171 -83.3024
rradius 48.6803
rwrist -21.4172
rhand -34.9761 -28.8357
rfingers 7.12502
rthumb -8.12173 -58.6596
lclavicle 2.90474e-014 9.14409e-015
lhumerus -60.675 14.2572 56.2303
lradius 13.8807
lwrist -21.9517
lhand -8.16534 -23.2121
lfingers 7.12502
lthumb 17.7497 5.99776
rfemur 18.6755 2.15539 22.3409
rtibia 23.6987
rfoot 8.42983 0.291698
rtoes -12.149
lfemur -48.8825 6.43506 -20.7855
ltibia 42.1366
lfoot -0.66396 3.67227
ltoes 1.15612
